<?xml version="1.0" encoding="UTF-8"?>
<svg version="1.1" xmlns="http://www.w3.org/2000/svg" width="512" height="512">
<path d="M0 0 C1.67526231 -0.00874829 1.67526231 -0.00874829 3.3843683 -0.01767331 C4.60624176 -0.01389399 5.82811522 -0.01011467 7.08701515 -0.00622082 C9.0399947 -0.01195914 9.0399947 -0.01195914 11.03242838 -0.01781338 C14.64474966 -0.02810858 18.25697186 -0.02590771 21.86930132 -0.02163279 C25.76578184 -0.01916831 29.66223834 -0.02817629 33.5587101 -0.03567028 C41.191844 -0.04842723 48.82494275 -0.05020972 56.45808552 -0.04787002 C62.66214419 -0.04608775 68.86619217 -0.04783455 75.07024956 -0.05209446 C76.39421215 -0.05298724 76.39421215 -0.05298724 77.74492145 -0.05389806 C79.53795667 -0.0551098 81.33099188 -0.05632394 83.12402709 -0.05754044 C99.94380695 -0.0684199 116.76356676 -0.06625161 133.58334775 -0.06015559 C148.97189242 -0.05498654 164.36037379 -0.06624084 179.74890594 -0.08525381 C195.54780741 -0.10462424 211.34667891 -0.11288958 227.14559233 -0.10913056 C236.01627919 -0.10721725 244.88691216 -0.10971871 253.75758934 -0.1238451 C261.30961903 -0.13574977 268.86156169 -0.13717411 276.41359256 -0.12505493 C280.26660809 -0.11915969 284.11946434 -0.11808453 287.97246933 -0.13005733 C292.14969396 -0.14288674 296.32653834 -0.132467 300.5037632 -0.11974621 C302.32988123 -0.13080764 302.32988123 -0.13080764 304.19289052 -0.14209253 C311.05569311 -0.09801537 316.74518648 0.08846763 322.16456032 4.75447559 C325.11828439 8.66561367 326.54801028 11.42786236 326.54542065 16.30931854 C326.5474117 17.13737304 326.54940274 17.96542755 326.55145413 18.81857461 C326.54854129 19.72809988 326.54562844 20.63762515 326.54262733 21.5747118 C326.54390897 23.02413425 326.54390897 23.02413425 326.5452165 24.50283796 C326.5468694 27.75494866 326.541353 31.00700828 326.53589821 34.25911427 C326.53561627 36.58465035 326.5357742 38.91018651 326.53634071 41.23572254 C326.53662843 47.56179718 326.53073588 53.88785297 326.52376676 60.21392322 C326.51816048 66.15143336 326.51714441 72.08894276 326.51611488 78.0264552 C326.51392551 89.78793106 326.50726854 101.54939998 326.49781227 113.31087208 C326.48863519 124.7369785 326.4815558 136.16308303 326.47730446 147.58919239 C326.47691037 148.64540657 326.47691037 148.64540657 326.47650833 149.72295841 C326.4752033 153.25538731 326.47393959 156.78781622 326.47269642 160.32024515 C326.46232739 189.63165977 326.44463792 218.94306761 326.42237282 248.25447559 C321.97090042 246.81528651 317.92613169 245.08837138 313.73487282 243.00447559 C277.77136413 225.74634679 233.59376666 223.83710468 196.09205055 237.00984669 C175.98074265 244.50261929 158.38551555 255.11467767 142.94581032 270.00447559 C140.42237282 272.25447559 140.42237282 272.25447559 138.21143532 273.31697559 C135.85055536 274.55411793 135.53600405 275.8668849 134.42237282 278.25447559 C133.10515072 279.76663542 131.74578565 281.2425112 130.35987282 282.69197559 C114.25117268 300.34711095 103.75511819 322.22868087 97.10987282 345.00447559 C96.74599464 346.24427174 96.74599464 346.24427174 96.3747654 347.50911427 C92.96321993 359.75763577 92.05198263 371.85782189 92.10987282 384.50447559 C92.11003395 385.22726704 92.11019508 385.95005848 92.1103611 386.69475269 C92.12545051 396.42917577 92.61609556 405.77944162 94.76612282 415.30525684 C95.42237282 418.25447559 95.42237282 418.25447559 95.42237282 422.25447559 C82.22688269 422.32399191 69.03143614 422.37729531 55.83580017 422.40991211 C49.70850467 422.42556667 43.58133448 422.44680146 37.4541111 422.48079395 C31.5407952 422.51339436 25.62759981 422.53133018 19.71420097 422.53910732 C17.45836045 422.54464956 15.2025265 422.55547216 12.94673729 422.57166576 C9.78661542 422.59344869 6.62699131 422.5964421 3.46680641 422.59505177 C2.0685009 422.61123051 2.0685009 422.61123051 0.64194679 422.62773609 C-4.52613687 422.60313904 -8.10936595 422.1478214 -12.57762718 419.25447559 C-17.48453681 414.07495987 -18.82698478 409.54095854 -18.83210278 402.49272156 C-18.83530925 401.8224415 -18.83851573 401.15216145 -18.84181938 400.46156988 C-18.85013295 398.21139582 -18.84419042 395.96148699 -18.83832359 393.71130848 C-18.84134367 392.08339682 -18.84523242 390.45548657 -18.84991616 388.82757884 C-18.86022364 384.35067447 -18.85800734 379.87384993 -18.85373557 375.39693892 C-18.8512733 370.56996231 -18.86027633 365.74300518 -18.86777306 360.91603565 C-18.88053638 351.45775488 -18.88231168 341.99950248 -18.87997279 332.54121455 C-18.87819116 324.85404143 -18.87993596 317.16687694 -18.88419724 309.47970486 C-18.88509002 307.83978417 -18.88509002 307.83978417 -18.88600084 306.16673378 C-18.88721257 303.94585229 -18.8884267 301.72497081 -18.88964321 299.50408933 C-18.90052523 278.66597994 -18.89835324 257.82788672 -18.89225837 236.98977641 C-18.88708965 217.92245862 -18.89834229 198.85519194 -18.91735659 179.78788426 C-18.93672474 160.21586772 -18.94499272 140.64387536 -18.94123334 121.07184917 C-18.93931961 110.08117544 -18.9418255 99.09054519 -18.95594788 88.09987926 C-18.96784968 78.74251411 -18.96928012 69.38521919 -18.95715771 60.02785309 C-18.95126035 55.25322834 -18.95019323 50.47873214 -18.96216011 45.70411587 C-18.97298961 41.33249852 -18.96995055 36.96111752 -18.95589843 32.58951137 C-18.95324338 31.00877537 -18.95564333 29.42802103 -18.96363429 27.847303 C-19.03366233 12.96042954 -19.03366233 12.96042954 -15.57762718 6.25447559 C-11.01221397 1.68906238 -6.38600013 0.00574581 0 0 Z M45.54737282 56.00447559 C43.10621593 59.73800965 42.42237282 61.80203854 42.42237282 66.25447559 C43.36098025 70.642877 44.69030013 73.54070472 47.92237282 76.69197559 C52.37562727 79.47525962 56.32735167 79.40285897 61.41146278 79.40164661 C62.23467024 79.4053233 63.0578777 79.40899999 63.90603083 79.41278809 C66.67426111 79.42383243 69.44245387 79.42767002 72.2107029 79.43147755 C74.19153399 79.43774155 76.1723639 79.4443883 78.15319252 79.45139027 C83.54167155 79.46880395 88.93014171 79.47935272 94.3186419 79.4875958 C97.6838091 79.49274446 101.04897354 79.49882021 104.41413879 79.50510693 C114.93908455 79.52415879 125.46402329 79.53839076 135.98898298 79.5467189 C148.14579401 79.5564967 160.30242322 79.58283051 172.45917016 79.62321979 C181.85118034 79.65335501 191.24313831 79.66818525 200.63519591 79.67149991 C206.24691656 79.67385305 211.85844297 79.68284817 217.47011185 79.70796108 C222.74867461 79.73120182 228.02691467 79.73549109 233.30551529 79.7251997 C235.24291493 79.72470328 237.18033024 79.73105485 239.1176815 79.74475574 C241.76295335 79.76241649 244.40705975 79.75539747 247.05233192 79.74222279 C248.20200415 79.75867665 248.20200415 79.75867665 249.37490207 79.77546293 C254.53511268 79.71342481 257.43395014 78.48571014 261.42237282 75.25447559 C264.27228272 72.01147467 265.28899636 69.38817547 265.79737282 65.06697559 C265.32427301 60.2571275 263.84510955 56.71482482 260.42237282 53.25447559 C255.23273127 50.58799731 250.95619278 49.8210344 245.11084938 49.87352467 C244.301264 49.86884469 243.49167862 49.86416472 242.65756035 49.85934293 C239.95920355 49.8474278 237.26135791 49.85683642 234.56299782 49.866292 C232.62260582 49.86222475 230.68221613 49.85688201 228.74183083 49.85036182 C223.48155461 49.83670071 218.22145517 49.84198195 212.96117592 49.85149908 C207.45246853 49.85910188 201.94377613 49.85204834 196.43506813 49.84734058 C187.18471501 49.84188485 177.93443377 49.8490699 168.68409157 49.86336231 C157.99413352 49.87968844 147.30434713 49.87439981 136.61439323 49.8578831 C127.43118891 49.84426307 118.24803622 49.84235111 109.06482506 49.8501991 C103.58229446 49.85487276 98.09984451 49.85550886 92.61731911 49.84558964 C87.46265069 49.83691479 82.30820331 49.8429515 77.15355873 49.86027241 C75.26335454 49.86423446 73.37313169 49.86310803 71.48293495 49.85648441 C68.89967211 49.84826771 66.31711437 49.85859185 63.73389626 49.87352467 C62.6160317 49.86348642 62.6160317 49.86348642 61.47558403 49.85324538 C54.88275545 49.92699752 50.35764877 51.40334207 45.54737282 56.00447559 Z M45.54737282 116.00447559 C43.12082245 119.71567028 42.42237282 121.83033116 42.42237282 126.25447559 C44.04011699 131.46720681 46.27153857 134.72626648 50.42237282 138.25447559 C54.12596728 139.48900708 57.55424474 139.4025664 61.41146278 139.40164661 C62.23467024 139.4053233 63.0578777 139.40899999 63.90603083 139.41278809 C66.67426111 139.42383243 69.44245387 139.42767002 72.2107029 139.43147755 C74.19153399 139.43774155 76.1723639 139.4443883 78.15319252 139.45139027 C83.54167155 139.46880395 88.93014171 139.47935272 94.3186419 139.4875958 C97.6838091 139.49274446 101.04897354 139.49882021 104.41413879 139.50510693 C114.93908455 139.52415879 125.46402329 139.53839076 135.98898298 139.5467189 C148.14579401 139.5564967 160.30242322 139.58283051 172.45917016 139.62321979 C181.85118034 139.65335501 191.24313831 139.66818525 200.63519591 139.67149991 C206.24691656 139.67385305 211.85844297 139.68284817 217.47011185 139.70796108 C222.74867461 139.73120182 228.02691467 139.73549109 233.30551529 139.7251997 C235.24291493 139.72470328 237.18033024 139.73105485 239.1176815 139.74475574 C241.76295335 139.76241649 244.40705975 139.75539747 247.05233192 139.74222279 C248.20200415 139.75867665 248.20200415 139.75867665 249.37490207 139.77546293 C254.53511268 139.71342481 257.43395014 138.48571014 261.42237282 135.25447559 C264.29803043 131.98217555 265.31405892 129.38094009 265.73487282 125.00447559 C265.37051699 120.63220568 264.31723436 117.52333247 261.42237282 114.25447559 C256.17825768 110.60686031 251.25511005 109.67221362 244.99059486 109.75327015 C243.77493516 109.74496855 243.77493516 109.74496855 242.53471667 109.73649925 C239.83931622 109.72296711 237.14485377 109.73782096 234.44947243 109.75276661 C232.50893195 109.74898075 230.56839417 109.74347852 228.62786293 109.73639393 C223.37172051 109.72245783 218.11590611 109.73359584 212.85978198 109.75010514 C207.35375204 109.76397755 201.84774072 109.75749314 196.3416996 109.75397205 C187.0972968 109.7512719 177.85302398 109.76472965 168.60865211 109.78792286 C157.92605116 109.81453918 147.24366739 109.81627643 136.56104463 109.80453449 C126.2763491 109.79375023 115.99173201 109.7999484 105.70704269 109.81408978 C101.33359418 109.81984313 96.96020319 109.81977201 92.58675385 109.81502438 C87.43616349 109.81024718 82.28581056 109.82038717 77.13526535 109.84197903 C75.24667728 109.84753663 73.35806634 109.84802163 71.4694767 109.84302616 C68.88844462 109.83705597 66.30813428 109.84961141 63.72716713 109.86679554 C62.98260621 109.86078549 62.2380453 109.85477545 61.47092193 109.84858328 C54.88206516 109.92817149 50.35491576 111.40595626 45.54737282 116.00447559 Z M45.60987282 176.06697559 C42.46722446 180.64626321 42.09513267 183.38920676 43.04737282 188.81697559 C44.81138924 193.22701666 47.165198 195.73061819 51.08197403 198.37490082 C54.51146013 199.66377923 57.87997263 199.532994 61.49375343 199.515172 C62.31373176 199.51899755 63.13371009 199.5228231 63.97853625 199.52676457 C66.72989959 199.53709457 69.48105425 199.53310242 72.23243141 199.5291338 C74.20355866 199.53348029 76.17468423 199.53866323 78.14580727 199.54462147 C83.50325941 199.55803003 88.86064109 199.55858802 94.21810675 199.55605817 C98.68885322 199.55498962 103.15958537 199.55986889 107.63032877 199.56466359 C118.17723192 199.5757654 128.72409946 199.57619252 139.27100563 199.57014942 C150.15461351 199.56410931 161.03809212 199.5764201 171.92167795 199.59771949 C181.26276009 199.61532859 190.60380107 199.6213379 199.9448992 199.61808175 C205.52525954 199.6162675 211.1055277 199.61891915 216.68587303 199.63279629 C221.93405365 199.64535856 227.18203264 199.64344562 232.43021011 199.6303854 C234.35631249 199.62801651 236.28242898 199.63076547 238.20851517 199.63900852 C240.83825312 199.64945131 243.46731147 199.64139521 246.09702492 199.6286974 C246.8589 199.63607168 247.62077508 199.64344597 248.40573728 199.65104371 C253.1538428 199.60282584 256.38967077 198.7637546 260.42237282 196.25447559 C263.80015272 192.60282165 265.25492404 189.99594291 265.73487282 185.00447559 C265.37050622 180.63207638 264.31706773 177.52355696 261.42237282 174.25447559 C256.16500107 170.59425194 251.22663708 169.67250132 244.94590187 169.75327015 C243.72305849 169.74496855 243.72305849 169.74496855 242.47551119 169.73649925 C239.76395919 169.72296614 237.05333944 169.73782147 234.34180641 169.75276661 C232.38979135 169.74898082 230.43777897 169.74347864 228.48577309 169.73639393 C223.19870774 169.7224579 217.91196849 169.73359538 212.62492132 169.75010514 C207.08772698 169.76397565 201.55055117 169.75749343 196.01334572 169.75397205 C186.71766859 169.75127197 177.42212075 169.76472978 168.12647438 169.78792286 C157.38136982 169.81454691 146.63648117 169.81627394 135.89135492 169.80453449 C125.54899101 169.79375477 115.20670516 169.79994432 104.86434746 169.81408978 C100.46495276 169.81984629 96.06561524 169.81976955 91.66621971 169.81502438 C86.48690572 169.81025131 81.30782814 169.82037009 76.12855911 169.84197903 C74.22826306 169.84754196 72.32794427 169.84801672 70.42764664 169.84302616 C67.83312783 169.837067 65.23933034 169.8495903 62.64487648 169.86679554 C61.89351178 169.86078549 61.14214707 169.85477545 60.36801374 169.84858328 C53.98211115 169.92555556 50.10120783 171.57564058 45.60987282 176.06697559 Z M45.60987282 236.00447559 C43.11042633 239.71793895 42.42237282 241.79135322 42.42237282 246.25447559 C44.14647219 252.13669698 46.61759361 254.77867787 51.42237282 258.25447559 C53.96219276 259.52438556 55.75969631 259.39526926 58.60303688 259.41560841 C60.2254731 259.43001972 60.2254731 259.43001972 61.88068581 259.44472218 C63.05459877 259.44897205 64.22851173 259.45322193 65.43799782 259.45760059 C66.64172035 259.46330067 67.84544289 259.46900074 69.08564186 259.47487354 C71.63781795 259.48433477 74.19000631 259.49086196 76.74219704 259.49470997 C80.64231744 259.50440091 84.54190777 259.53540866 88.44190407 259.56697559 C90.91976552 259.57350693 93.39763074 259.57875689 95.87549782 259.58260059 C97.04131386 259.5949474 98.2071299 259.6072942 99.4082737 259.62001514 C106.52146778 259.60050614 111.31005735 259.11444116 116.73487282 254.12947559 C119.41076328 249.5705511 120.16624748 245.20916654 118.86377907 240.03572559 C116.87903956 235.30763503 114.6120825 233.40022616 109.89544106 231.11414051 C105.12825568 229.45701599 100.25421878 229.70732285 95.25831032 229.75838184 C94.10746956 229.75692661 92.9566288 229.75547138 91.77091408 229.75397205 C89.3487182 229.75562565 86.92651123 229.76712601 84.50440407 229.78792286 C80.80212693 229.81693833 77.10127793 229.80850688 73.39893532 229.79549122 C71.03955338 229.80172746 68.68017594 229.8101175 66.32081032 229.82088184 C65.21756416 229.81794621 64.11431801 229.81501057 62.97764015 229.81198597 C55.62234047 229.90214217 51.04147019 230.69358038 45.60987282 236.00447559 Z " fill="#000000" transform="translate(136.57762718200684,-0.25447559356689453)"/>
<path d="M0 0 C22.48036962 19.70924373 39.46101838 49.52024402 42.1328125 79.59765625 C44.26492535 116.37378262 36.55667266 152.59727607 11.6953125 180.78515625 C10.18251211 182.39690055 8.66164295 184.00110929 7.1328125 185.59765625 C6.01326172 186.82935547 6.01326172 186.82935547 4.87109375 188.0859375 C-17.06977917 211.40491484 -50.58493568 222.41922909 -81.8671875 223.72265625 C-118.41989794 224.45371046 -151.48626352 211.06771758 -177.8671875 185.97265625 C-188.24276139 175.30063739 -195.92986401 163.19614924 -201.8671875 149.59765625 C-202.14933105 148.9521582 -202.43147461 148.30666016 -202.72216797 147.64160156 C-214.22496421 120.6774746 -216.40977672 89.87285836 -208.8671875 61.59765625 C-208.53976562 60.33308594 -208.21234375 59.06851563 -207.875 57.765625 C-202.83583037 40.79061199 -193.76015176 24.68782299 -181.8671875 11.59765625 C-181.31047363 10.98196777 -180.75375977 10.3662793 -180.18017578 9.73193359 C-162.70154969 -9.29245399 -141.63517069 -21.40281974 -116.8671875 -28.40234375 C-115.67738281 -28.74394531 -114.48757813 -29.08554687 -113.26171875 -29.4375 C-72.83387256 -38.91622075 -31.18845991 -26.13202023 0 0 Z M-51.9375 53.14453125 C-52.96768351 54.53680648 -53.98539722 55.93837214 -54.9921875 57.34765625 C-56.12405463 58.88056827 -57.258231 60.41177747 -58.39453125 61.94140625 C-59.25473877 63.10542969 -59.25473877 63.10542969 -60.13232422 64.29296875 C-62.84161288 67.89213635 -65.69236041 71.36982059 -68.5546875 74.84765625 C-73.70167402 81.12990606 -78.70422198 87.50035817 -83.62158203 93.96386719 C-85.90128536 96.95402294 -88.19804548 99.93107401 -90.4921875 102.91015625 C-91.3386093 104.01036464 -92.18497009 105.11061997 -93.03125 106.2109375 C-93.63710938 106.99855469 -94.24296875 107.78617188 -94.8671875 108.59765625 C-98.61607148 107.34802826 -99.51338069 105.81868639 -101.9296875 102.72265625 C-110.99457459 90.02155499 -110.99457459 90.02155499 -123.8671875 82.59765625 C-129.31905444 82.69330304 -132.66343557 84.15822285 -136.8671875 87.59765625 C-139.99529607 91.24711624 -140.23724118 94.49962461 -140.36328125 99.12109375 C-139.06653366 105.59462108 -134.62999385 110.26645854 -130.1796875 114.84765625 C-126.41363418 118.81937996 -122.78876287 122.81912325 -119.3671875 127.09765625 C-115.90494073 131.37974287 -112.35386349 135.5595944 -108.6796875 139.66015625 C-108.19242188 140.22089844 -107.70515625 140.78164063 -107.203125 141.359375 C-104.03362673 144.84668204 -101.47945655 146.59444041 -96.8671875 147.59765625 C-91.31795491 147.39946937 -88.25999224 145.9020278 -83.8671875 142.59765625 C-81.41380838 139.85516258 -81.41380838 139.85516258 -79.1796875 136.72265625 C-78.31077038 135.55663944 -77.44094684 134.39129766 -76.5703125 133.2265625 C-76.12623047 132.62730957 -75.68214844 132.02805664 -75.22460938 131.41064453 C-73.0106382 128.45363915 -70.71994508 125.55821609 -68.4296875 122.66015625 C-67.49989722 121.47924758 -66.57021009 120.29825769 -65.640625 119.1171875 C-64.71617064 117.94399087 -63.79169179 116.77081354 -62.8671875 115.59765625 C-56.24277333 107.18712894 -49.64310001 98.75809966 -43.08349609 90.296875 C-40.28996761 86.69670456 -37.4852181 83.10767474 -34.63671875 79.55078125 C-34.13591797 78.92300781 -33.63511719 78.29523438 -33.11914062 77.6484375 C-32.19403509 76.49111416 -31.26468645 75.33716292 -30.33007812 74.1875 C-26.83395618 69.80511386 -24.14511738 65.78139103 -23.4296875 60.16015625 C-24.04279273 55.16772792 -25.54093582 51.55539282 -29.4453125 48.26953125 C-37.82434427 42.90997039 -46.03234338 45.71782416 -51.9375 53.14453125 Z " fill="#000000" transform="translate(469.8671875,288.40234375)"/>
<path d="M0 0 C29.7 0 59.4 0 90 0 C90 61.05 90 122.1 90 185 C60.3 185 30.6 185 0 185 C0 123.95 0 62.9 0 0 Z " fill="#000000" transform="translate(0,137)"/>
<path d="M0 0 C7.62126271 7.19785923 11.24962782 15.24497721 14.5390625 25.11328125 C14.5390625 32.70328125 14.5390625 40.29328125 14.5390625 48.11328125 C-15.1609375 48.11328125 -44.8609375 48.11328125 -75.4609375 48.11328125 C-75.4609375 21.12256918 -75.4609375 21.12256918 -71.4609375 14.11328125 C-71.01363281 13.32179688 -70.56632812 12.5303125 -70.10546875 11.71484375 C-68.67046306 9.3988292 -67.13788025 7.25944155 -65.4609375 5.11328125 C-64.98269531 4.49710938 -64.50445312 3.8809375 -64.01171875 3.24609375 C-47.4267039 -15.55304147 -18.73879237 -14.36640749 0 0 Z " fill="#000000" transform="translate(75.4609375,59.88671875)"/>
<path d="M0 0 C26.4 0 52.8 0 80 0 C78.87500565 6.74996608 78.87500565 6.74996608 77.46875 10.01977539 C77.15721481 10.75304047 76.84567963 11.48630554 76.52470398 12.24179077 C76.18655167 13.01922638 75.84839935 13.79666199 75.5 14.59765625 C75.14819168 15.42117584 74.79638336 16.24469543 74.43391418 17.09317017 C73.29596751 19.75254372 72.14858274 22.4077047 71 25.0625 C70.21663643 26.88174316 69.43367797 28.70116081 68.65112305 30.52075195 C67.49235248 33.21501499 66.33311847 35.90906397 65.17106628 38.60191345 C63.09190521 43.4268046 61.05481835 48.26346715 59.08203125 53.1328125 C58.48745117 54.58482056 58.48745117 54.58482056 57.88085938 56.06616211 C57.19596572 57.74662445 56.52296349 59.43201179 55.86523438 61.12329102 C53.77123775 66.19785542 51.60639996 68.93492725 47 72 C42.41932569 73.47261245 37.65752482 73.57104155 33.125 71.875 C28.10555217 68.8633313 25.71680857 64.89032052 23.4765625 59.58203125 C23.01926758 58.50816162 22.56197266 57.43429199 22.09082031 56.32788086 C21.60709961 55.16780518 21.12337891 54.00772949 20.625 52.8125 C20.11549805 51.60537354 19.60599609 50.39824707 19.08105469 49.15454102 C17.67940071 45.8290561 16.28997383 42.49858248 14.90319824 39.16687012 C13.9634893 36.91240688 13.01976982 34.65965527 12.07519531 32.40722656 C10.44363613 28.51499025 8.81902982 24.61992238 7.19989014 20.72250366 C6.56756741 19.20142276 5.93382271 17.68093219 5.29864502 16.16104126 C4.40723004 14.02491909 3.52294059 11.88598755 2.640625 9.74609375 C2.23839218 8.78698593 2.23839218 8.78698593 1.82803345 7.8085022 C0.68711487 5.02170565 0 3.04666282 0 0 Z " fill="#000000" transform="translate(5,351)"/>
</svg>
