<?xml version="1.0" encoding="UTF-8"?>
<svg version="1.1" xmlns="http://www.w3.org/2000/svg" width="512" height="512">
<path d="M0 0 C1.49395798 -0.00744736 1.49395798 -0.00744736 3.01809692 -0.01504517 C6.30422668 -0.02961661 9.59030812 -0.03646123 12.87646484 -0.04199219 C15.17084758 -0.04774873 17.46523031 -0.0535064 19.75961304 -0.05926514 C24.569562 -0.06976154 29.37949432 -0.07561279 34.18945312 -0.07910156 C40.32904967 -0.08457665 46.46842338 -0.10858957 52.60795021 -0.13707352 C57.34883245 -0.15577245 62.08966186 -0.1609094 66.83057785 -0.16243744 C69.09261668 -0.16544924 71.35465491 -0.17342751 73.61665726 -0.18662262 C96.16457901 -0.30874158 96.16457901 -0.30874158 105.96240234 3.16113281 C106.8471524 3.4509906 107.73190247 3.74084839 108.64346313 4.03948975 C123.51592314 9.09271464 135.03522386 21.06482386 142.23583984 34.65332031 C147.25381735 44.8482158 149.10670119 53.87259412 149.1394043 65.15112305 C149.14597549 66.14227615 149.15254669 67.13342926 149.15931702 68.15461731 C149.17898246 71.42632129 149.19070032 74.6979794 149.20068359 77.96972656 C149.20475912 79.09288836 149.20883465 80.21605015 149.21303368 81.37324715 C149.23387006 87.32329243 149.24817984 93.27331484 149.25756836 99.22338867 C149.26860114 105.33585343 149.30297222 111.44795101 149.34274006 117.56028652 C149.36902801 122.2884229 149.37727119 127.01647358 149.38084984 131.74467659 C149.38568779 133.99587534 149.39722088 136.247071 149.41588783 138.49819756 C149.57868572 159.43952274 147.11686755 176.77644725 132.96240234 193.16113281 C132.39005859 193.84046875 131.81771484 194.51980469 131.22802734 195.21972656 C121.80851188 205.54496467 105.95611495 213.57605182 91.89276505 214.2620945 C89.2901387 214.31264878 86.68904879 214.33061596 84.0859375 214.33813477 C83.09493042 214.34470596 82.10392334 214.35127716 81.08288574 214.35804749 C77.80574459 214.37774142 74.52864931 214.38943808 71.25146484 214.39941406 C69.56534655 214.40552735 69.56534655 214.40552735 67.84516525 214.41176414 C61.8886407 214.43261412 55.93213907 214.4469172 49.97558594 214.45629883 C43.85524538 214.46732556 37.73527215 214.5016856 31.61506081 214.54147053 C26.88263322 214.56776058 22.15029126 214.57600191 17.41779709 214.57958031 C15.16380728 214.58441889 12.90982059 214.59595385 10.65590286 214.6146183 C-11.10023228 214.78349597 -29.44206812 212.12740025 -45.89306641 196.34082031 C-46.60076172 195.62152344 -47.30845703 194.90222656 -48.03759766 194.16113281 C-48.61123047 193.58621094 -49.18486328 193.01128906 -49.77587891 192.41894531 C-60.81940929 180.49079105 -65.17972722 164.96813759 -65.19873047 149.12353516 C-65.20369537 148.12756317 -65.20866028 147.13159119 -65.21377563 146.10543823 C-65.22834708 142.81930848 -65.2351917 139.53322703 -65.24072266 136.24707031 C-65.2464792 133.95268758 -65.25223687 131.65830485 -65.25799561 129.36392212 C-65.26849201 124.55397315 -65.27434326 119.74404083 -65.27783203 114.93408203 C-65.28330711 108.79448549 -65.30732004 102.65511178 -65.33580399 96.51558495 C-65.35450291 91.7747027 -65.35963987 87.0338733 -65.36116791 82.29295731 C-65.3641797 80.03091848 -65.37215798 77.76888025 -65.38535309 75.5068779 C-65.50627721 53.17957021 -62.37310623 34.73708543 -46.28759766 17.91113281 C-33.20201005 5.47588315 -17.84850022 0.02140663 0 0 Z " fill="#000000" transform="translate(342.03759765625,276.8388671875)"/>
<path d="M0 0 C1.49395798 -0.00744736 1.49395798 -0.00744736 3.01809692 -0.01504517 C6.30422668 -0.02961661 9.59030812 -0.03646123 12.87646484 -0.04199219 C15.17084758 -0.04774873 17.46523031 -0.0535064 19.75961304 -0.05926514 C24.569562 -0.06976154 29.37949432 -0.07561279 34.18945312 -0.07910156 C40.32904967 -0.08457665 46.46842338 -0.10858957 52.60795021 -0.13707352 C57.34883245 -0.15577245 62.08966186 -0.1609094 66.83057785 -0.16243744 C69.09261668 -0.16544924 71.35465491 -0.17342751 73.61665726 -0.18662262 C96.16457901 -0.30874158 96.16457901 -0.30874158 105.96240234 3.16113281 C106.8471524 3.4509906 107.73190247 3.74084839 108.64346313 4.03948975 C123.51592314 9.09271464 135.03522386 21.06482386 142.23583984 34.65332031 C147.25381735 44.8482158 149.10670119 53.87259412 149.1394043 65.15112305 C149.14597549 66.14227615 149.15254669 67.13342926 149.15931702 68.15461731 C149.17898246 71.42632129 149.19070032 74.6979794 149.20068359 77.96972656 C149.20475912 79.09288836 149.20883465 80.21605015 149.21303368 81.37324715 C149.23387006 87.32329243 149.24817984 93.27331484 149.25756836 99.22338867 C149.26860114 105.33585343 149.30297222 111.44795101 149.34274006 117.56028652 C149.36902801 122.2884229 149.37727119 127.01647358 149.38084984 131.74467659 C149.38568779 133.99587534 149.39722088 136.247071 149.41588783 138.49819756 C149.57868572 159.43952274 147.11686755 176.77644725 132.96240234 193.16113281 C132.39005859 193.84046875 131.81771484 194.51980469 131.22802734 195.21972656 C121.80851188 205.54496467 105.95611495 213.57605182 91.89276505 214.2620945 C89.2901387 214.31264878 86.68904879 214.33061596 84.0859375 214.33813477 C83.09493042 214.34470596 82.10392334 214.35127716 81.08288574 214.35804749 C77.80574459 214.37774142 74.52864931 214.38943808 71.25146484 214.39941406 C69.56534655 214.40552735 69.56534655 214.40552735 67.84516525 214.41176414 C61.8886407 214.43261412 55.93213907 214.4469172 49.97558594 214.45629883 C43.85524538 214.46732556 37.73527215 214.5016856 31.61506081 214.54147053 C26.88263322 214.56776058 22.15029126 214.57600191 17.41779709 214.57958031 C15.16380728 214.58441889 12.90982059 214.59595385 10.65590286 214.6146183 C-11.10023228 214.78349597 -29.44206812 212.12740025 -45.89306641 196.34082031 C-46.60076172 195.62152344 -47.30845703 194.90222656 -48.03759766 194.16113281 C-48.61123047 193.58621094 -49.18486328 193.01128906 -49.77587891 192.41894531 C-60.81940929 180.49079105 -65.17972722 164.96813759 -65.19873047 149.12353516 C-65.20369537 148.12756317 -65.20866028 147.13159119 -65.21377563 146.10543823 C-65.22834708 142.81930848 -65.2351917 139.53322703 -65.24072266 136.24707031 C-65.2464792 133.95268758 -65.25223687 131.65830485 -65.25799561 129.36392212 C-65.26849201 124.55397315 -65.27434326 119.74404083 -65.27783203 114.93408203 C-65.28330711 108.79448549 -65.30732004 102.65511178 -65.33580399 96.51558495 C-65.35450291 91.7747027 -65.35963987 87.0338733 -65.36116791 82.29295731 C-65.3641797 80.03091848 -65.37215798 77.76888025 -65.38535309 75.5068779 C-65.50627721 53.17957021 -62.37310623 34.73708543 -46.28759766 17.91113281 C-33.20201005 5.47588315 -17.84850022 0.02140663 0 0 Z " fill="#000000" transform="translate(86.03759765625,276.8388671875)"/>
<path d="M0 0 C1.49395798 -0.00744736 1.49395798 -0.00744736 3.01809692 -0.01504517 C6.30422668 -0.02961661 9.59030812 -0.03646123 12.87646484 -0.04199219 C15.17084758 -0.04774873 17.46523031 -0.0535064 19.75961304 -0.05926514 C24.569562 -0.06976154 29.37949432 -0.07561279 34.18945312 -0.07910156 C40.32904967 -0.08457665 46.46842338 -0.10858957 52.60795021 -0.13707352 C57.34883245 -0.15577245 62.08966186 -0.1609094 66.83057785 -0.16243744 C69.09261668 -0.16544924 71.35465491 -0.17342751 73.61665726 -0.18662262 C96.16457901 -0.30874158 96.16457901 -0.30874158 105.96240234 3.16113281 C106.8471524 3.4509906 107.73190247 3.74084839 108.64346313 4.03948975 C123.51592314 9.09271464 135.03522386 21.06482386 142.23583984 34.65332031 C147.25381735 44.8482158 149.10670119 53.87259412 149.1394043 65.15112305 C149.14597549 66.14227615 149.15254669 67.13342926 149.15931702 68.15461731 C149.17898246 71.42632129 149.19070032 74.6979794 149.20068359 77.96972656 C149.20475912 79.09288836 149.20883465 80.21605015 149.21303368 81.37324715 C149.23387006 87.32329243 149.24817984 93.27331484 149.25756836 99.22338867 C149.26860114 105.33585343 149.30297222 111.44795101 149.34274006 117.56028652 C149.36902801 122.2884229 149.37727119 127.01647358 149.38084984 131.74467659 C149.38568779 133.99587534 149.39722088 136.247071 149.41588783 138.49819756 C149.57868572 159.43952274 147.11686755 176.77644725 132.96240234 193.16113281 C132.39005859 193.84046875 131.81771484 194.51980469 131.22802734 195.21972656 C121.80851188 205.54496467 105.95611495 213.57605182 91.89276505 214.2620945 C89.2901387 214.31264878 86.68904879 214.33061596 84.0859375 214.33813477 C83.09493042 214.34470596 82.10392334 214.35127716 81.08288574 214.35804749 C77.80574459 214.37774142 74.52864931 214.38943808 71.25146484 214.39941406 C69.56534655 214.40552735 69.56534655 214.40552735 67.84516525 214.41176414 C61.8886407 214.43261412 55.93213907 214.4469172 49.97558594 214.45629883 C43.85524538 214.46732556 37.73527215 214.5016856 31.61506081 214.54147053 C26.88263322 214.56776058 22.15029126 214.57600191 17.41779709 214.57958031 C15.16380728 214.58441889 12.90982059 214.59595385 10.65590286 214.6146183 C-11.10023228 214.78349597 -29.44206812 212.12740025 -45.89306641 196.34082031 C-46.60076172 195.62152344 -47.30845703 194.90222656 -48.03759766 194.16113281 C-48.61123047 193.58621094 -49.18486328 193.01128906 -49.77587891 192.41894531 C-60.81940929 180.49079105 -65.17972722 164.96813759 -65.19873047 149.12353516 C-65.20369537 148.12756317 -65.20866028 147.13159119 -65.21377563 146.10543823 C-65.22834708 142.81930848 -65.2351917 139.53322703 -65.24072266 136.24707031 C-65.2464792 133.95268758 -65.25223687 131.65830485 -65.25799561 129.36392212 C-65.26849201 124.55397315 -65.27434326 119.74404083 -65.27783203 114.93408203 C-65.28330711 108.79448549 -65.30732004 102.65511178 -65.33580399 96.51558495 C-65.35450291 91.7747027 -65.35963987 87.0338733 -65.36116791 82.29295731 C-65.3641797 80.03091848 -65.37215798 77.76888025 -65.38535309 75.5068779 C-65.50627721 53.17957021 -62.37310623 34.73708543 -46.28759766 17.91113281 C-33.20201005 5.47588315 -17.84850022 0.02140663 0 0 Z " fill="#000000" transform="translate(342.03759765625,20.8388671875)"/>
<path d="M0 0 C1.49395798 -0.00744736 1.49395798 -0.00744736 3.01809692 -0.01504517 C6.30422668 -0.02961661 9.59030812 -0.03646123 12.87646484 -0.04199219 C15.17084758 -0.04774873 17.46523031 -0.0535064 19.75961304 -0.05926514 C24.569562 -0.06976154 29.37949432 -0.07561279 34.18945312 -0.07910156 C40.32904967 -0.08457665 46.46842338 -0.10858957 52.60795021 -0.13707352 C57.34883245 -0.15577245 62.08966186 -0.1609094 66.83057785 -0.16243744 C69.09261668 -0.16544924 71.35465491 -0.17342751 73.61665726 -0.18662262 C96.16457901 -0.30874158 96.16457901 -0.30874158 105.96240234 3.16113281 C106.8471524 3.4509906 107.73190247 3.74084839 108.64346313 4.03948975 C123.51592314 9.09271464 135.03522386 21.06482386 142.23583984 34.65332031 C147.25381735 44.8482158 149.10670119 53.87259412 149.1394043 65.15112305 C149.14597549 66.14227615 149.15254669 67.13342926 149.15931702 68.15461731 C149.17898246 71.42632129 149.19070032 74.6979794 149.20068359 77.96972656 C149.20475912 79.09288836 149.20883465 80.21605015 149.21303368 81.37324715 C149.23387006 87.32329243 149.24817984 93.27331484 149.25756836 99.22338867 C149.26860114 105.33585343 149.30297222 111.44795101 149.34274006 117.56028652 C149.36902801 122.2884229 149.37727119 127.01647358 149.38084984 131.74467659 C149.38568779 133.99587534 149.39722088 136.247071 149.41588783 138.49819756 C149.57868572 159.43952274 147.11686755 176.77644725 132.96240234 193.16113281 C132.39005859 193.84046875 131.81771484 194.51980469 131.22802734 195.21972656 C121.80851188 205.54496467 105.95611495 213.57605182 91.89276505 214.2620945 C89.2901387 214.31264878 86.68904879 214.33061596 84.0859375 214.33813477 C83.09493042 214.34470596 82.10392334 214.35127716 81.08288574 214.35804749 C77.80574459 214.37774142 74.52864931 214.38943808 71.25146484 214.39941406 C69.56534655 214.40552735 69.56534655 214.40552735 67.84516525 214.41176414 C61.8886407 214.43261412 55.93213907 214.4469172 49.97558594 214.45629883 C43.85524538 214.46732556 37.73527215 214.5016856 31.61506081 214.54147053 C26.88263322 214.56776058 22.15029126 214.57600191 17.41779709 214.57958031 C15.16380728 214.58441889 12.90982059 214.59595385 10.65590286 214.6146183 C-11.10023228 214.78349597 -29.44206812 212.12740025 -45.89306641 196.34082031 C-46.60076172 195.62152344 -47.30845703 194.90222656 -48.03759766 194.16113281 C-48.61123047 193.58621094 -49.18486328 193.01128906 -49.77587891 192.41894531 C-60.81940929 180.49079105 -65.17972722 164.96813759 -65.19873047 149.12353516 C-65.20369537 148.12756317 -65.20866028 147.13159119 -65.21377563 146.10543823 C-65.22834708 142.81930848 -65.2351917 139.53322703 -65.24072266 136.24707031 C-65.2464792 133.95268758 -65.25223687 131.65830485 -65.25799561 129.36392212 C-65.26849201 124.55397315 -65.27434326 119.74404083 -65.27783203 114.93408203 C-65.28330711 108.79448549 -65.30732004 102.65511178 -65.33580399 96.51558495 C-65.35450291 91.7747027 -65.35963987 87.0338733 -65.36116791 82.29295731 C-65.3641797 80.03091848 -65.37215798 77.76888025 -65.38535309 75.5068779 C-65.50627721 53.17957021 -62.37310623 34.73708543 -46.28759766 17.91113281 C-33.20201005 5.47588315 -17.84850022 0.02140663 0 0 Z " fill="#000000" transform="translate(86.03759765625,20.8388671875)"/>
</svg>
