<?xml version="1.0" encoding="UTF-8"?>
<svg version="1.1" xmlns="http://www.w3.org/2000/svg" width="512" height="512">
<path d="M0 0 C1.51427582 0.00081573 1.51427582 0.00081573 3.05914307 0.00164795 C19.56873539 0.04241399 35.48532001 0.94970691 51.6875 4.375 C52.72938477 4.59462402 53.77126953 4.81424805 54.84472656 5.04052734 C101.13799311 15.13814785 143.55163721 37.49728758 177.6875 70.375 C178.6765332 71.32318604 178.6765332 71.32318604 179.68554688 72.29052734 C189.17380305 81.43497479 197.9137044 90.73234009 205.6875 101.375 C206.54556152 102.52605017 207.40363451 103.67709177 208.26171875 104.828125 C214.29927396 113.01775981 219.68207302 121.52038276 224.6875 130.375 C225.0896875 131.08221191 225.491875 131.78942383 225.90625 132.51806641 C240.65895525 158.72140656 250.19241108 187.66104542 254.6875 217.375 C254.86482666 218.49962646 255.04215332 219.62425293 255.22485352 220.78295898 C256.87625708 232.33690444 257.04420897 243.77965547 257 255.4375 C256.99726578 256.93159393 256.99726578 256.93159393 256.99447632 258.45587158 C256.94973255 272.96830287 256.49219043 287.09809519 253.6875 301.375 C253.52652832 302.27057617 253.36555664 303.16615234 253.19970703 304.08886719 C242.37865541 363.90090465 208.32070506 421.41643264 159.6875 458.375 C159.14722168 458.79168945 158.60694336 459.20837891 158.05029297 459.63769531 C148.0552884 467.3209873 137.59540964 474.06342968 126.6875 480.375 C126.01025879 480.76929199 125.33301758 481.16358398 124.63525391 481.56982422 C98.66058664 496.50987689 69.249512 505.90429683 39.6875 510.375 C38.56504883 510.55160156 37.44259766 510.72820312 36.28613281 510.91015625 C24.67282942 512.56708616 13.15583704 512.77266487 1.4375 512.75 C0.42681458 512.74978851 -0.58387085 512.74957703 -1.62518311 512.74935913 C-18.18486258 512.7148632 -34.05930462 511.76549345 -50.3125 508.375 C-51.20356445 508.19308105 -52.09462891 508.01116211 -53.01269531 507.82373047 C-58.8574774 506.59017499 -64.58821342 505.07865672 -70.3125 503.375 C-71.23417969 503.10204102 -72.15585938 502.82908203 -73.10546875 502.54785156 C-93.7659617 496.30694832 -114.03903133 487.96525608 -132.3125 476.375 C-133.00504883 475.93575195 -133.69759766 475.49650391 -134.41113281 475.04394531 C-150.78466095 464.5611967 -165.34582065 452.88073283 -179.3125 439.375 C-179.86744141 438.84197266 -180.42238281 438.30894531 -180.99414062 437.75976562 C-187.96836879 431.03853244 -194.37535101 424.04257432 -200.3125 416.375 C-200.76061035 415.80861816 -201.2087207 415.24223633 -201.67041016 414.65869141 C-210.24301486 403.80586089 -217.44895142 392.36969889 -224.3125 380.375 C-224.87662598 379.41158691 -224.87662598 379.41158691 -225.45214844 378.42871094 C-246.86513346 341.77531028 -255.78506922 298.78700311 -255.625 256.75 C-255.62284485 255.73209381 -255.6206897 254.71418762 -255.61846924 253.66543579 C-255.56879854 239.05636477 -255.31790191 224.72424147 -252.3125 210.375 C-252.11382324 209.40014648 -251.91514648 208.42529297 -251.71044922 207.42089844 C-241.58982806 159.0390226 -219.6733123 115.05071731 -185.3125 79.375 C-184.68037598 78.71564453 -184.04825195 78.05628906 -183.39697266 77.37695312 C-174.25252521 67.88869695 -164.95515991 59.1487956 -154.3125 51.375 C-153.16144983 50.51693848 -152.01040823 49.65886549 -150.859375 48.80078125 C-142.66974019 42.76322604 -134.16711724 37.38042698 -125.3125 32.375 C-124.60528809 31.9728125 -123.89807617 31.570625 -123.16943359 31.15625 C-100.03404164 18.1308259 -74.86287591 9.38198539 -48.875 4.0625 C-48.15610596 3.91514404 -47.43721191 3.76778809 -46.6965332 3.6159668 C-31.16987908 0.66484793 -15.76936592 -0.03207988 0 0 Z " fill="#556080" transform="translate(255.3125,-0.375)"/>
<path d="M0 0 C0.87358154 0.00304138 1.74716309 0.00608276 2.6472168 0.00921631 C30.73113723 0.1536017 56.47554449 5.15854704 77.1875 25.4375 C77.74179687 25.95570312 78.29609375 26.47390625 78.8671875 27.0078125 C82.60005407 30.86174501 84.94712893 35.45276463 87.375 40.1875 C87.70838379 40.83082275 88.04176758 41.47414551 88.38525391 42.13696289 C93.31055691 52.1499279 94.61114617 61.62642283 94.50649452 72.7335701 C94.48782397 74.9047393 94.49087481 77.07496193 94.4995575 79.2461853 C94.52116276 85.41004742 94.51043128 91.57352716 94.47241211 97.73730469 C94.45051429 101.53043918 94.45793779 105.32263267 94.4828701 109.1157341 C94.48643743 110.54851277 94.47894334 111.98136775 94.45961952 113.41402054 C94.33517573 122.81392976 95.40011101 128.08530836 101.1875 135.4375 C103.50411909 140.52520654 103.50915033 145.36211145 103.5234375 150.859375 C103.5300943 151.75940247 103.5367511 152.65942993 103.54360962 153.58673096 C103.55370413 155.48618538 103.55842763 157.38567503 103.55810547 159.28515625 C103.56246543 162.16467007 103.59878213 165.04263322 103.63671875 167.921875 C103.70430883 178.96004855 103.22342212 187.32596079 97 196.75 C94.41514689 199.21997075 92.93451617 200.06408049 89.7890625 201.47265625 C84.09453789 204.57933515 82.75511936 208.625563 80.75 214.5625 C80.00897768 216.54585347 79.26010585 218.5262897 78.50390625 220.50390625 C78.12637207 221.49793457 77.74883789 222.49196289 77.35986328 223.51611328 C72.09356573 236.63908631 64.5738631 250.91965991 54.59521484 261.07592773 C51.4603274 264.84558941 51.47660107 268.22948438 51.55859375 272.984375 C51.55497581 274.20123993 51.55497581 274.20123993 51.55128479 275.44268799 C51.55226073 277.15389913 51.56559412 278.86514282 51.59057617 280.57617188 C51.62472296 283.16648444 51.61126432 285.75334789 51.59179688 288.34375 C51.59932545 297.01185464 51.7349876 304.72359318 56.1875 312.4375 C56.59492432 313.14519531 57.00234863 313.85289062 57.42211914 314.58203125 C64.14053887 324.75580679 77.54217578 329.23138296 88.12521362 334.45095634 C90.80260929 335.77205253 93.47698649 337.09908722 96.15063477 338.42774963 C103.74563237 342.20097853 111.34513788 345.96505786 118.94824219 349.72192383 C123.61867876 352.03020737 128.28508784 354.34647062 132.94918823 356.66752815 C134.71451997 357.54403189 136.48135906 358.41750713 138.24978638 359.28774834 C147.34780588 363.76548231 156.15548426 368.16156946 164.1875 374.4375 C162.78616354 378.64150939 159.76054763 380.34205663 156.3125 382.875 C155.2447937 383.66463135 155.2447937 383.66463135 154.15551758 384.47021484 C120.02808413 409.3567277 81.04000789 426.10808847 39.1875 432.4375 C38.06504883 432.61410156 36.94259766 432.79070312 35.78613281 432.97265625 C24.17282942 434.62958616 12.65583704 434.83516487 0.9375 434.8125 C-0.07318542 434.81228851 -1.08387085 434.81207703 -2.12518311 434.81185913 C-18.68486258 434.7773632 -34.55930462 433.82799345 -50.8125 430.4375 C-51.70356445 430.25558105 -52.59462891 430.07366211 -53.51269531 429.88623047 C-59.3574774 428.65267499 -65.08821342 427.14115672 -70.8125 425.4375 C-72.19501953 425.02806152 -72.19501953 425.02806152 -73.60546875 424.61035156 C-94.2659617 418.36944832 -114.53903133 410.02775608 -132.8125 398.4375 C-133.50504883 397.99825195 -134.19759766 397.55900391 -134.91113281 397.10644531 C-145.33438764 390.43321281 -155.22858561 383.26487702 -164.8125 375.4375 C-161.77129424 371.10378179 -158.35381703 368.62170429 -153.8125 366.0625 C-152.72509521 365.43565308 -152.72509521 365.43565308 -151.61572266 364.79614258 C-143.35702686 360.08617106 -134.94442361 355.65239433 -126.54956055 351.19140625 C-117.88527354 346.58211444 -109.32037317 341.81552322 -100.79833984 336.94799805 C-94.37362393 333.28806791 -87.89180209 329.76520542 -81.30004883 326.41455078 C-75.18471912 323.25952313 -69.2916384 319.97959204 -65.5 314.0625 C-64.79423828 312.99902344 -64.79423828 312.99902344 -64.07421875 311.9140625 C-61.07925404 306.03540112 -60.46958827 300.25699686 -60.37109375 293.79296875 C-60.35732193 292.98314041 -60.34355011 292.17331207 -60.32936096 291.33894348 C-60.30620725 289.63382676 -60.2888821 287.92862189 -60.27709961 286.22338867 C-60.25017059 283.64135648 -60.17516655 281.06342536 -60.09960938 278.48242188 C-59.93784683 268.31082502 -60.75896789 262.24253864 -67.8125 254.4375 C-68.70922992 253.1171605 -69.57507495 251.77509114 -70.40234375 250.41015625 C-70.79010986 249.77335938 -71.17787598 249.1365625 -71.57739258 248.48046875 C-79.3018014 235.43437166 -85.55072539 221.79558045 -88.9152832 206.95507812 C-90.24671557 201.67366456 -92.59797139 199.70036086 -96.8125 196.4375 C-98.45703125 193.8671875 -98.45703125 193.8671875 -99.625 191.3125 C-100.02332031 190.46429688 -100.42164063 189.61609375 -100.83203125 188.7421875 C-102.20854332 185.50656153 -102.94104143 182.8918576 -102.98950195 179.40014648 C-103.00875481 178.18759438 -103.00875481 178.18759438 -103.02839661 176.95054626 C-103.03578354 176.07870193 -103.04317047 175.2068576 -103.05078125 174.30859375 C-103.058853 173.40432144 -103.06692474 172.50004913 -103.07524109 171.56837463 C-103.08907545 169.6509899 -103.09980051 167.73358061 -103.10766602 165.81616211 C-103.11914858 163.86784583 -103.13954088 161.91956007 -103.16918945 159.97143555 C-103.52569712 136.54350453 -103.52569712 136.54350453 -96.76522827 129.21960449 C-94.40143245 125.851841 -94.31360658 124.08078598 -94.31420898 120.00170898 C-94.30417343 118.71944931 -94.29413788 117.43718964 -94.28379822 116.11607361 C-94.28785109 115.43516096 -94.29190395 114.75424831 -94.29607964 114.05270195 C-94.30878002 111.90205138 -94.29735342 109.75267164 -94.28004456 107.60206604 C-94.25336255 103.80081657 -94.24774704 99.99988033 -94.24914551 96.19854736 C-94.25137333 90.14063297 -94.23679413 84.08311123 -94.19355965 78.02534676 C-94.1838533 75.92719796 -94.19237393 73.82968621 -94.20225525 71.73155212 C-94.14284795 60.47454287 -92.37267197 50.36063831 -87.1875 40.3125 C-86.84340088 39.63654785 -86.49930176 38.9605957 -86.14477539 38.26416016 C-82.89551017 32.14540447 -78.83062637 27.21666797 -73.8125 22.4375 C-73.27367187 21.8909375 -72.73484375 21.344375 -72.1796875 20.78125 C-53.07815783 2.73558378 -24.97401864 -0.18533263 0 0 Z " fill="#E6EBEC" transform="translate(255.8125,77.5625)"/>
</svg>
